<svg width="312" height="88" viewBox="0 0 312 88" fill="none" xmlns="http://www.w3.org/2000/svg">
<path d="M307 0H4C1.79086 0 0 1.79086 0 4V84C0 86.2091 1.79086 88 4 88H307C309.209 88 311 86.2091 311 84V4C311 1.79086 309.209 0 307 0Z" fill="#F8FAFC"/>
<path fill-rule="evenodd" clip-rule="evenodd" d="M0 32.7207C0 29.2994 4.01642 27.4571 6.60946 29.6891L10.4928 33.0316C11.2186 33.6564 12.1445 34 13.1022 34H18.4785C19.2503 34 20.0056 34.2233 20.6533 34.6429L35.6484 44.3571C36.2962 44.7767 37.0515 45 37.8232 45H68.2855C69.7176 45 71.0404 45.7656 71.7538 47.0074L77.4904 56.9926C78.2038 58.2344 79.5267 59 80.9588 59H85.7019C86.8919 59 88.0202 58.4701 88.7801 57.5544L96.4249 48.3421C97.9183 46.5424 100.63 46.4022 102.301 48.0383L110.81 56.3695C112.32 57.8478 114.72 57.8967 116.289 56.481L136.844 37.9315C138.937 36.0429 142.275 36.8539 143.268 39.4925L154.893 70.3871C155.28 71.4166 156.075 72.2412 157.089 72.6668L160.851 74.2453C161.986 74.7216 163.277 74.6487 164.352 74.0476L176.982 66.981C178.086 66.3637 179.416 66.3043 180.569 66.8208L191.361 71.651C191.875 71.8811 192.432 72 192.995 72H203.891C204.394 72 204.893 72.0949 205.36 72.2796L216.997 76.8751C218.677 77.5389 220.595 76.9933 221.674 75.5439L228.098 66.918C228.545 66.318 229.151 65.8554 229.847 65.5826L245.069 59.6211C246.083 59.2243 247.214 59.2573 248.202 59.7127L259.023 64.6985C260.685 65.4641 262.654 65.0047 263.805 63.583L284.019 38.6247C285.807 36.4167 289.263 36.7249 290.632 39.2146L293.34 44.1385C294.256 45.8039 296.217 46.5948 298.032 46.0307L305.813 43.6123C308.387 42.8121 311 44.7361 311 47.4321V84C311 86.2091 309.209 88 307 88H4C1.79086 88 0 86.2091 0 84V32.7207Z" fill="#3B82F6" fill-opacity="0.08"/>
<path d="M0.956909 39H19.1141C20.0468 39 20.9502 39.326 21.6681 39.9215L39.9379 55.0785C40.6558 55.674 41.5592 56 42.4919 56H55.431C55.9354 56 56.4353 56.0954 56.9042 56.2812L70.6305 61.7188C71.0994 61.9046 71.5993 62 72.1037 62H111.635C112.649 62 113.626 62.3856 114.367 63.0787L121.458 69.7115C122.874 71.0357 125.035 71.1542 126.587 69.9929L134.693 63.9273C136.197 62.8018 138.282 62.8746 139.704 64.1023L147.725 71.0276C148.451 71.6549 149.379 72 150.339 72H159.102C159.966 72 160.807 71.7203 161.499 71.2026L172.731 62.7974C173.423 62.2797 174.264 62 175.128 62H185.83C186.694 62 187.535 61.7203 188.227 61.2026L193.554 57.2165C194.575 56.4519 195.901 56.2208 197.121 56.5943L213.894 61.729C214.477 61.9073 215.011 62.2163 215.456 62.6325L224.318 70.9213C225.059 71.6144 226.035 72 227.05 72H270.311C271.271 72 272.199 71.6549 272.925 71.0276L282.472 62.7847C283.065 62.2729 283.495 61.5982 283.708 60.8445L293.071 27.6998C293.91 24.7293 297.655 23.7884 299.798 26.0093L304.593 30.9775C305.764 32.191 307.571 32.5395 309.11 31.8487L311 31" stroke="#CBD5E1" stroke-width="2"/>
<path d="M0.956909 24L11.4128 33.0276C12.1393 33.6549 13.0671 34 14.0269 34H19.3718C20.1455 34 20.9026 34.2244 21.5514 34.646L36.4909 44.354C37.1397 44.7756 37.8968 45 38.6705 45H69.0216C70.4556 45 71.7799 45.7676 72.4926 47.012L78.2062 56.988C78.9189 58.2324 80.2432 59 81.6773 59H86.3857C87.5778 59 88.7078 58.4683 89.4677 57.5497L97.0731 48.3565C98.5669 46.5509 101.286 46.4104 102.958 48.0524L111.414 56.3572C112.925 57.8412 115.331 57.8902 116.901 56.4689L137.361 37.949C139.454 36.0542 142.799 36.866 143.79 39.5096L155.373 70.3867C155.76 71.4165 156.553 72.2418 157.567 72.6685L161.303 74.241C162.44 74.7199 163.736 74.6466 164.812 74.0425L177.385 66.9863C178.491 66.3659 179.825 66.3062 180.981 66.8254L191.725 71.6491C192.24 71.8804 192.798 72 193.363 72H204.216C204.72 72 205.22 72.0954 205.689 72.2812L217.271 76.8692C218.954 77.5361 220.876 76.9888 221.956 75.5348L228.352 66.9197C228.798 66.3187 229.404 65.8549 230.101 65.5811L245.263 59.6246C246.279 59.2256 247.413 59.2589 248.404 59.7167L259.168 64.6915C260.832 65.4608 262.806 64.9999 263.958 63.5734L284.086 38.6444C285.874 36.4299 289.337 36.7385 290.706 39.2342L293.39 44.1301C294.305 45.7995 296.27 46.5925 298.088 46.0258L311 42" stroke="#0879C9" stroke-width="2"/>
</svg>
