<svg width="183" height="33" viewBox="0 0 183 33" fill="none" xmlns="http://www.w3.org/2000/svg">
<path d="M56.19 25.3781C57.7215 25.3781 59.0015 24.8512 60.053 23.7743C61.1044 22.6975 61.6302 21.3916 61.6302 19.8336C61.6302 18.2985 61.1044 16.9926 60.053 15.9158C59.0015 14.816 57.7215 14.2891 56.19 14.2891C54.6357 14.2891 53.3099 14.839 52.2127 15.9158C51.1156 16.9926 50.567 18.3215 50.567 19.8336C50.567 21.3916 51.0927 22.6975 52.167 23.7743C53.2413 24.8283 54.59 25.3781 56.19 25.3781ZM56.67 30.327C54.2014 30.327 52.1899 29.7313 50.6356 28.517V30.052H45.0582V2.44397H50.6356V11.0357C52.2127 9.79848 54.2242 9.17987 56.67 9.17987C59.5044 9.17987 61.9502 10.2109 64.0074 12.2729C66.0646 14.3349 67.0932 16.8551 67.0932 19.8107C67.0932 22.7662 66.0646 25.2636 64.0074 27.2798C61.9502 29.3189 59.5044 30.327 56.67 30.327Z" fill="#3842B0"/>
<path d="M69.5392 30.052V2.44397H75.7794V24.3242H88.5569V30.052H69.5392Z" fill="#3842B0"/>
<path d="M96.4205 30.052H90.8431V9.38607H96.4205V30.052ZM96.4205 7.599H90.8431V2.44397H96.4205V7.599Z" fill="#3842B0"/>
<path d="M104.192 9.38608V11.471C104.763 10.8066 105.563 10.2338 106.615 9.72974C107.666 9.24861 108.855 8.99658 110.181 8.99658C112.604 8.99658 114.524 9.75265 115.964 11.2877C117.404 12.8228 118.135 14.839 118.135 17.3363V30.0291H112.581V18.3215C112.581 17.0843 112.238 16.0762 111.575 15.3201C110.912 14.564 109.975 14.1745 108.809 14.1745C107.438 14.1745 106.34 14.5869 105.518 15.4117C104.695 16.2365 104.26 17.3592 104.26 18.7797V30.052H98.6831V9.38608H104.192Z" fill="#3842B0"/>
<path d="M126.021 18.6422L132.855 9.38607H139.187L131.278 19.6503L139.53 30.052H132.558L126.021 21.5519V30.052H120.375V2.44397H126.021V18.6422Z" fill="#3842B0"/>
<path d="M148.01 13.5789C145.359 13.5789 143.644 14.839 142.867 17.3364H152.879C152.582 16.1221 151.987 15.2056 151.119 14.5641C150.204 13.8997 149.176 13.5789 148.01 13.5789ZM157.77 25.6073C155.599 28.8836 152.353 30.5332 148.01 30.5332C144.764 30.5332 142.158 29.5251 140.147 27.486C138.158 25.4469 137.153 22.8809 137.153 19.7649C137.153 16.7407 138.181 14.1746 140.216 12.0897C142.25 10.0048 144.856 8.97375 148.056 8.97375C151.256 8.97375 153.793 9.95893 155.667 11.9293C157.565 13.8997 158.502 16.4199 158.502 19.49C158.502 19.742 158.502 20.017 158.479 20.3148C158.456 20.6356 158.456 20.8876 158.433 21.0938C158.41 21.3 158.41 21.4375 158.41 21.4604H142.661C142.958 22.8121 143.576 23.8661 144.559 24.6221C145.519 25.3782 146.707 25.7677 148.147 25.7677C150.502 25.7677 152.33 24.8512 153.61 23.0183L157.77 25.6073Z" fill="#3842B0"/>
<path d="M170.96 25.3781C172.56 25.3781 173.908 24.8512 174.982 23.7743C176.057 22.6975 176.583 21.3916 176.583 19.8336C176.583 18.2985 176.034 16.9926 174.937 15.9158C173.84 14.839 172.514 14.2891 170.96 14.2891C169.428 14.2891 168.148 14.839 167.097 15.9158C166.045 17.0155 165.519 18.3215 165.519 19.8336C165.519 21.3916 166.045 22.6975 167.097 23.7743C168.148 24.8283 169.428 25.3781 170.96 25.3781ZM176.491 30.052V28.517C174.937 29.7313 172.925 30.327 170.457 30.327C167.622 30.327 165.176 29.3189 163.119 27.2798C161.062 25.2407 160.033 22.7662 160.033 19.8107C160.033 16.8551 161.062 14.3349 163.119 12.2729C165.176 10.2109 167.622 9.17987 170.457 9.17987C172.902 9.17987 174.914 9.79848 176.491 11.0357V2.44397H182.068V30.052H176.491Z" fill="#3842B0"/>
<path d="M27.3202 15.6866C26.1087 17.3363 23.8686 18.0694 21.7886 17.153L11.7083 12.5936L3.79944 15.5263C4.71375 15.343 5.69664 15.4575 6.5881 15.8699L16.6913 20.5438L25.2172 17.3133C26.1087 16.9468 26.8173 16.374 27.3202 15.6866Z" fill="#A6B0FC"/>
<path d="M3.77713 15.5035C2.40566 15.7555 1.14848 16.6491 0.485598 18.0008C-0.680152 20.3607 0.325594 23.2246 2.72567 24.3014L21.0805 32.5953C24.0749 33.9471 27.4807 31.7476 27.4807 28.4484C27.4807 26.6842 26.4521 25.0575 24.8521 24.3243L16.6918 20.544L6.58865 15.8701C5.67433 15.4348 4.69144 15.3431 3.77713 15.5035Z" fill="#3842B0"/>
<path d="M27.3208 15.6867C27.8693 14.9535 28.1893 14.0142 28.1893 13.0061C28.1893 11.2419 27.1607 9.61519 25.5607 8.88203L7.27441 0.427784C5.01148 -0.626133 2.31425 0.336143 1.19422 2.55853C0.0284658 4.91839 1.03421 7.7823 3.43429 8.85913L11.7088 12.5937L21.7891 17.153C23.8464 18.0694 26.1093 17.3134 27.3208 15.6867Z" fill="#3842B0"/>
</svg>
