<svg width="39" height="40" viewBox="0 0 39 40" fill="none" xmlns="http://www.w3.org/2000/svg">
<path d="M38.8667 37.4187L35.0974 30.9735V9.6409C35.0974 9.12542 34.8926 8.63106 34.5281 8.26657C34.1636 7.90207 33.6693 7.6973 33.1538 7.6973H5.84621C5.33073 7.6973 4.83637 7.90207 4.47187 8.26657C4.10738 8.63106 3.90261 9.12542 3.90261 9.6409V30.9729L0.133276 37.4181C0.0219753 37.6904 -0.0206096 37.9859 0.00927683 38.2786C0.0391633 38.5713 0.140603 38.8521 0.304651 39.0963C0.468698 39.3406 0.690314 39.5406 0.949957 39.679C1.2096 39.8173 1.49929 39.8897 1.79349 39.8896H37.2065C37.5006 39.8896 37.7902 39.8173 38.0498 39.679C38.3094 39.5407 38.5309 39.3406 38.695 39.0965C38.859 38.8524 38.9605 38.5716 38.9904 38.2791C39.0204 37.9865 38.9779 37.691 38.8667 37.4187Z" fill="url(#paint0_linear_1309_8983)"/>
<path d="M35.0966 9.6409V30.9729H3.90308V9.6409C3.90308 9.12542 4.10785 8.63106 4.47234 8.26656C4.83684 7.90207 5.3312 7.6973 5.84668 7.6973H33.1536C33.669 7.69746 34.1632 7.90231 34.5276 8.26679C34.8919 8.63126 35.0966 9.12553 35.0966 9.6409Z" fill="url(#paint1_linear_1309_8983)"/>
<path d="M0.134009 37.4187C0.0227077 37.691 -0.0198772 37.9866 0.0100093 38.2792C0.0398957 38.5719 0.141335 38.8527 0.305383 39.0969C0.469431 39.3411 0.691047 39.5413 0.950689 39.6796C1.21033 39.8179 1.50002 39.8903 1.79422 39.8902H37.2066C37.5008 39.8903 37.7905 39.8179 38.0502 39.6796C38.3098 39.5413 38.5314 39.3411 38.6955 39.0969C38.8595 38.8527 38.9609 38.5719 38.9908 38.2792C39.0207 37.9866 38.9781 37.691 38.8668 37.4187L35.0969 30.9735H3.90271L0.134009 37.4187Z" fill="url(#paint2_linear_1309_8983)"/>
<path d="M35.1005 9.64088V35.7146L9.771 10.3851V7.69791H33.1569C33.6723 7.69791 34.1665 7.90259 34.531 8.26695C34.8955 8.63131 35.1003 9.12551 35.1005 9.64088Z" fill="url(#paint3_linear_1309_8983)"/>
<path d="M35.096 17.725V9.6409C35.096 9.12542 34.8912 8.63106 34.5267 8.26656C34.1623 7.90207 33.6679 7.6973 33.1524 7.6973H27.7605V10.387L35.096 17.725Z" fill="url(#paint4_linear_1309_8983)"/>
<path d="M28.4946 10.7212C28.2354 10.7212 27.9868 10.6182 27.8035 10.4349C27.6202 10.2516 27.5172 10.0029 27.5172 9.74371V4.72796C27.5172 3.99233 27.2249 3.28683 26.7048 2.76666C26.1846 2.24649 25.4791 1.95426 24.7435 1.95426H14.2568C13.5212 1.95426 12.8157 2.24649 12.2955 2.76666C11.7753 3.28683 11.4831 3.99233 11.4831 4.72796V9.74371C11.4831 10.003 11.3801 10.2517 11.1967 10.4351C11.0134 10.6185 10.7647 10.7215 10.5053 10.7215C10.246 10.7215 9.99733 10.6185 9.81396 10.4351C9.6306 10.2517 9.52759 10.003 9.52759 9.74371V4.72796C9.52792 3.47392 10.0263 2.27134 10.9132 1.38471C11.8001 0.498083 13.0028 -4.40815e-08 14.2568 0L24.7435 0C25.9977 0 27.2006 0.498256 28.0875 1.38516C28.9744 2.27206 29.4727 3.47495 29.4727 4.72922V9.74496C29.4724 10.0041 29.3691 10.2525 29.1857 10.4355C29.0023 10.6186 28.7537 10.7213 28.4946 10.7212Z" fill="url(#paint5_linear_1309_8983)"/>
<path d="M37.2058 39.8902H32.933L15.1942 22.1514L12.9572 19.9144C12.7312 19.7569 12.5466 19.5471 12.4191 19.3029C12.2916 19.0587 12.2249 18.7873 12.2249 18.5119V15.5187C12.2249 15.0651 12.4051 14.6301 12.7258 14.3093C13.0466 13.9885 13.4816 13.8083 13.9352 13.8083H16.9284C17.2039 13.8082 17.4753 13.8747 17.7196 14.0022C17.9638 14.1297 18.1736 14.3145 18.3309 14.5406L35.5625 31.7722L38.8653 37.4193C38.9765 37.6916 39.019 37.987 38.989 38.2795C38.9591 38.5721 38.8577 38.8527 38.6938 39.0969C38.5298 39.341 38.3083 39.541 38.0488 39.6794C37.7894 39.8177 37.4998 39.8901 37.2058 39.8902Z" fill="url(#paint6_linear_1309_8983)"/>
<path d="M35.3379 39.8883H24.5904L12.9576 28.2556C12.7315 28.0982 12.5468 27.8884 12.4193 27.6442C12.2918 27.4 12.2252 27.1285 12.2253 26.853V23.8599C12.2255 23.4064 12.4058 22.9715 12.7265 22.6509C13.0473 22.3303 13.4822 22.1501 13.9357 22.1501H16.9289C17.2042 22.1499 17.4756 22.2163 17.7198 22.3436C17.964 22.4709 18.1738 22.6553 18.3314 22.8812L35.3379 39.8883Z" fill="url(#paint7_linear_1309_8983)"/>
<path d="M38.9275 37.593L23.4859 22.1514L21.2489 19.9144C21.023 19.7569 20.8385 19.5472 20.711 19.3032C20.5835 19.0591 20.5168 18.7878 20.5166 18.5125V15.5193C20.5166 15.2947 20.5608 15.0723 20.6468 14.8648C20.7327 14.6573 20.8587 14.4687 21.0176 14.3099C21.1764 14.1511 21.3649 14.0251 21.5724 13.9392C21.78 13.8532 22.0024 13.809 22.227 13.809H25.2189C25.4944 13.8088 25.7658 13.8753 26.0101 14.0028C26.2543 14.1304 26.464 14.3151 26.6214 14.5413L35.0942 23.0141V30.9766L35.6341 31.8989L38.8642 37.4224C38.8893 37.4785 38.9104 37.5353 38.9275 37.593Z" fill="url(#paint8_linear_1309_8983)"/>
<path d="M37.2059 39.8883H32.8798L21.247 28.2556C21.0214 28.0981 20.8372 27.8885 20.71 27.6445C20.5828 27.4005 20.5165 27.1294 20.5166 26.8543V23.8612C20.5168 23.4076 20.697 22.9728 21.0178 22.6521C21.3385 22.3315 21.7735 22.1514 22.227 22.1514H25.2189C25.4942 22.1512 25.7656 22.2176 26.0098 22.3449C26.254 22.4721 26.4638 22.6566 26.6214 22.8825L35.6341 31.8951L38.8642 37.4187C38.8876 37.4764 38.9085 37.5343 38.9269 37.5924C39.0048 37.8596 39.0195 38.1413 38.9697 38.4152C38.92 38.6891 38.8071 38.9477 38.6402 39.1705C38.4732 39.3932 38.2567 39.574 38.0077 39.6986C37.7588 39.8232 37.4842 39.8882 37.2059 39.8883Z" fill="url(#paint9_linear_1309_8983)"/>
<path d="M16.8526 20.1439H13.8589C13.4056 20.1434 12.971 19.9629 12.6507 19.6422C12.3303 19.3215 12.1504 18.8868 12.1504 18.4335V15.4397C12.1504 14.9861 12.3306 14.5511 12.6513 14.2303C12.9721 13.9096 13.4071 13.7294 13.8608 13.7294H16.8526C17.3063 13.7294 17.7413 13.9096 18.0621 14.2303C18.3828 14.5511 18.563 14.9861 18.563 15.4397V18.4335C18.563 18.8871 18.3828 19.3222 18.0621 19.6429C17.7413 19.9637 17.3063 20.1439 16.8526 20.1439Z" fill="url(#paint10_linear_1309_8983)"/>
<path d="M12.1504 18.4342C12.1504 18.6588 12.1946 18.8812 12.2806 19.0887C12.3665 19.2962 12.4925 19.4847 12.6513 19.6436C12.8102 19.8024 12.9987 19.9284 13.2062 20.0143C13.4137 20.1003 13.6361 20.1445 13.8608 20.1445H16.8526C17.0773 20.1445 17.2997 20.1003 17.5072 20.0143C17.7147 19.9284 17.9032 19.8024 18.0621 19.6436C18.2209 19.4847 18.3469 19.2962 18.4328 19.0887C18.5188 18.8812 18.563 18.6588 18.563 18.4342C18.563 18.3361 18.524 18.242 18.4547 18.1726C18.3853 18.1032 18.2912 18.0642 18.1931 18.0642H12.5184C12.4206 18.0647 12.327 18.1039 12.2581 18.1733C12.1891 18.2426 12.1504 18.3364 12.1504 18.4342Z" fill="url(#paint11_linear_1309_8983)"/>
<path d="M25.1439 20.1439H22.1501C21.6968 20.1434 21.2623 19.963 20.9419 19.6423C20.6216 19.3216 20.4417 18.8868 20.4417 18.4335V15.4397C20.4417 14.9861 20.6218 14.5511 20.9426 14.2303C21.2634 13.9096 21.6984 13.7294 22.152 13.7294H25.1439C25.5975 13.7294 26.0326 13.9096 26.3533 14.2303C26.6741 14.5511 26.8543 14.9861 26.8543 15.4397V18.4335C26.8543 18.8871 26.6741 19.3222 26.3533 19.6429C26.0326 19.9637 25.5975 20.1439 25.1439 20.1439Z" fill="url(#paint12_linear_1309_8983)"/>
<path d="M20.4414 18.4342C20.4414 18.6588 20.4856 18.8812 20.5716 19.0887C20.6575 19.2962 20.7835 19.4847 20.9424 19.6436C21.1012 19.8024 21.2897 19.9284 21.4973 20.0143C21.7048 20.1003 21.9272 20.1445 22.1518 20.1445H25.1437C25.3683 20.1445 25.5907 20.1003 25.7982 20.0143C26.0057 19.9284 26.1943 19.8024 26.3531 19.6436C26.5119 19.4847 26.6379 19.2962 26.7238 19.0887C26.8098 18.8812 26.854 18.6588 26.854 18.4342C26.854 18.3361 26.8151 18.242 26.7457 18.1726C26.6763 18.1032 26.5822 18.0642 26.4841 18.0642H20.8094C20.7117 18.0647 20.6181 18.1039 20.5491 18.1733C20.4801 18.2426 20.4414 18.3364 20.4414 18.4342Z" fill="url(#paint13_linear_1309_8983)"/>
<path d="M16.8526 28.487H13.8589C13.4056 28.4865 12.971 28.306 12.6507 27.9853C12.3303 27.6646 12.1504 27.2299 12.1504 26.7766V23.7828C12.1504 23.3292 12.3306 22.8941 12.6513 22.5734C12.9721 22.2526 13.4071 22.0724 13.8608 22.0724H16.8526C17.3063 22.0724 17.7413 22.2526 18.0621 22.5734C18.3828 22.8941 18.563 23.3292 18.563 23.7828V26.7766C18.563 27.2302 18.3828 27.6652 18.0621 27.986C17.7413 28.3068 17.3063 28.487 16.8526 28.487Z" fill="url(#paint14_linear_1309_8983)"/>
<path d="M12.1504 26.7772C12.1504 27.0018 12.1946 27.2242 12.2806 27.4318C12.3665 27.6393 12.4925 27.8278 12.6513 27.9866C12.8102 28.1455 12.9987 28.2714 13.2062 28.3574C13.4137 28.4433 13.6361 28.4876 13.8608 28.4876H16.8526C17.0773 28.4876 17.2997 28.4433 17.5072 28.3574C17.7147 28.2714 17.9032 28.1455 18.0621 27.9866C18.2209 27.8278 18.3469 27.6393 18.4328 27.4318C18.5188 27.2242 18.563 27.0018 18.563 26.7772C18.563 26.6791 18.524 26.585 18.4547 26.5157C18.3853 26.4463 18.2912 26.4073 18.1931 26.4073H12.5184C12.4206 26.4078 12.327 26.447 12.2581 26.5163C12.1891 26.5856 12.1504 26.6794 12.1504 26.7772Z" fill="url(#paint15_linear_1309_8983)"/>
<path d="M25.1439 28.487H22.1501C21.6968 28.4865 21.2623 28.3061 20.9419 27.9854C20.6216 27.6647 20.4417 27.2299 20.4417 26.7766V23.7828C20.4417 23.3292 20.6218 22.8942 20.9426 22.5734C21.2634 22.2527 21.6984 22.0725 22.152 22.0725H25.1439C25.5975 22.0725 26.0326 22.2527 26.3533 22.5734C26.6741 22.8942 26.8543 23.3292 26.8543 23.7828V26.7766C26.8543 27.2302 26.6741 27.6653 26.3533 27.986C26.0326 28.3068 25.5975 28.487 25.1439 28.487Z" fill="url(#paint16_linear_1309_8983)"/>
<path d="M20.4414 26.7772C20.4414 27.0019 20.4856 27.2243 20.5716 27.4318C20.6575 27.6393 20.7835 27.8278 20.9424 27.9867C21.1012 28.1455 21.2897 28.2715 21.4973 28.3574C21.7048 28.4434 21.9272 28.4876 22.1518 28.4876H25.1437C25.3683 28.4876 25.5907 28.4434 25.7982 28.3574C26.0057 28.2715 26.1943 28.1455 26.3531 27.9867C26.5119 27.8278 26.6379 27.6393 26.7238 27.4318C26.8098 27.2243 26.854 27.0019 26.854 26.7772C26.854 26.6791 26.8151 26.585 26.7457 26.5157C26.6763 26.4463 26.5822 26.4073 26.4841 26.4073H20.8094C20.7117 26.4078 20.6181 26.447 20.5491 26.5163C20.4801 26.5857 20.4414 26.6795 20.4414 26.7772Z" fill="url(#paint17_linear_1309_8983)"/>
<path d="M25.1437 20.1439H22.1499C21.6966 20.1434 21.262 19.9629 20.9417 19.6422C20.6213 19.3215 20.4414 18.8868 20.4414 18.4335V15.4397C20.4414 14.9861 20.6216 14.5511 20.9424 14.2303C21.2631 13.9096 21.6982 13.7294 22.1518 13.7294H25.1437C25.5973 13.7294 26.0323 13.9096 26.3531 14.2303C26.6738 14.5511 26.854 14.9861 26.854 15.4397V18.4335C26.854 18.8871 26.6738 19.3222 26.3531 19.6429C26.0323 19.9637 25.5973 20.1439 25.1437 20.1439Z" fill="url(#paint18_linear_1309_8983)"/>
<defs>
<linearGradient id="paint0_linear_1309_8983" x1="3.66598" y1="9.95076" x2="27.1603" y2="44.4384" gradientUnits="userSpaceOnUse">
<stop stop-color="#EEF4FF"/>
<stop offset="1" stop-color="#CFE7FD"/>
</linearGradient>
<linearGradient id="paint1_linear_1309_8983" x1="16.0997" y1="12.9808" x2="22.8818" y2="38.4847" gradientUnits="userSpaceOnUse">
<stop stop-color="#8AAADC" stop-opacity="0"/>
<stop offset="1" stop-color="#8AAADC"/>
</linearGradient>
<linearGradient id="paint2_linear_1309_8983" x1="19.5004" y1="36.4483" x2="19.5004" y2="40.2112" gradientUnits="userSpaceOnUse">
<stop stop-color="#8AAADC" stop-opacity="0"/>
<stop offset="1" stop-color="#8AAADC"/>
</linearGradient>
<linearGradient id="paint3_linear_1309_8983" x1="29.3" y1="16.4671" x2="11.3615" y2="1.79608" gradientUnits="userSpaceOnUse">
<stop stop-color="#8AAADC" stop-opacity="0"/>
<stop offset="1" stop-color="#8AAADC"/>
</linearGradient>
<linearGradient id="paint4_linear_1309_8983" x1="37.6928" y1="15.8799" x2="26.8093" y2="10.0513" gradientUnits="userSpaceOnUse">
<stop stop-color="#8AAADC" stop-opacity="0"/>
<stop offset="1" stop-color="#8AAADC"/>
</linearGradient>
<linearGradient id="paint5_linear_1309_8983" x1="9.52759" y1="5.36073" x2="29.4727" y2="5.36073" gradientUnits="userSpaceOnUse">
<stop stop-color="#3C3E4B"/>
<stop offset="1" stop-color="#171F67"/>
</linearGradient>
<linearGradient id="paint6_linear_1309_8983" x1="21.6759" y1="23.2761" x2="13.8079" y2="14.9587" gradientUnits="userSpaceOnUse">
<stop stop-color="#8AAADC" stop-opacity="0"/>
<stop offset="1" stop-color="#8AAADC"/>
</linearGradient>
<linearGradient id="paint7_linear_1309_8983" x1="18.8818" y1="28.802" x2="14.8336" y2="21.9365" gradientUnits="userSpaceOnUse">
<stop stop-color="#8AAADC" stop-opacity="0"/>
<stop offset="1" stop-color="#8AAADC"/>
</linearGradient>
<linearGradient id="paint8_linear_1309_8983" x1="27.2366" y1="20.5398" x2="20.2623" y2="16.365" gradientUnits="userSpaceOnUse">
<stop stop-color="#8AAADC" stop-opacity="0"/>
<stop offset="1" stop-color="#8AAADC"/>
</linearGradient>
<linearGradient id="paint9_linear_1309_8983" x1="28.8335" y1="30.47" x2="21.81" y2="22.8381" gradientUnits="userSpaceOnUse">
<stop stop-color="#8AAADC" stop-opacity="0"/>
<stop offset="1" stop-color="#8AAADC"/>
</linearGradient>
<linearGradient id="paint10_linear_1309_8983" x1="13.0866" y1="14.6659" x2="17.5768" y2="19.1547" gradientUnits="userSpaceOnUse">
<stop stop-color="#FAAADE"/>
<stop offset="1" stop-color="#F5B169"/>
</linearGradient>
<linearGradient id="paint11_linear_1309_8983" x1="15.3567" y1="18.861" x2="15.3567" y2="20.1445" gradientUnits="userSpaceOnUse">
<stop stop-color="#D52C1C" stop-opacity="0"/>
<stop offset="0.28" stop-color="#D12C1E" stop-opacity="0.278"/>
<stop offset="0.573" stop-color="#C42C23" stop-opacity="0.573"/>
<stop offset="0.872" stop-color="#AF2B2C" stop-opacity="0.871"/>
<stop offset="1" stop-color="#A42B31"/>
</linearGradient>
<linearGradient id="paint12_linear_1309_8983" x1="21.3779" y1="14.6659" x2="25.8681" y2="19.1547" gradientUnits="userSpaceOnUse">
<stop stop-color="#76CCF8"/>
<stop offset="0.833" stop-color="#518EF8"/>
<stop offset="1" stop-color="#4981F8"/>
</linearGradient>
<linearGradient id="paint13_linear_1309_8983" x1="23.6477" y1="18.861" x2="23.6477" y2="20.1445" gradientUnits="userSpaceOnUse">
<stop stop-color="#4071F7" stop-opacity="0"/>
<stop offset="1" stop-color="#30569F"/>
</linearGradient>
<linearGradient id="paint14_linear_1309_8983" x1="13.0866" y1="23.009" x2="17.5768" y2="27.4978" gradientUnits="userSpaceOnUse">
<stop stop-color="#CD97E0"/>
<stop offset="1" stop-color="#C09A3A"/>
</linearGradient>
<linearGradient id="paint15_linear_1309_8983" x1="15.3567" y1="27.2041" x2="15.3567" y2="28.4876" gradientUnits="userSpaceOnUse">
<stop stop-color="#8CC951" stop-opacity="0"/>
<stop offset="1" stop-color="#3E6E66"/>
</linearGradient>
<linearGradient id="paint16_linear_1309_8983" x1="21.3779" y1="23.009" x2="25.8681" y2="27.4978" gradientUnits="userSpaceOnUse">
<stop stop-color="#F95F6C"/>
<stop offset="1" stop-color="#C4237C"/>
</linearGradient>
<linearGradient id="paint17_linear_1309_8983" x1="23.6477" y1="27.2041" x2="23.6477" y2="28.4876" gradientUnits="userSpaceOnUse">
<stop stop-color="#8A1958" stop-opacity="0"/>
<stop offset="1" stop-color="#8A1958"/>
</linearGradient>
<linearGradient id="paint18_linear_1309_8983" x1="21.3776" y1="14.6659" x2="25.8678" y2="19.1547" gradientUnits="userSpaceOnUse">
<stop stop-color="#AF76F8"/>
<stop offset="0.833" stop-color="#518EF8"/>
<stop offset="1" stop-color="#4981F8"/>
</linearGradient>
</defs>
</svg>
