
<svg width="10" height="10" viewBox="0 0 10 10" fill="none" xmlns="http://www.w3.org/2000/svg">
<path d="M9.37422 0.627878C9.20769 0.461354 8.98184 0.367802 8.74634 0.367802C8.51084 0.367802 8.28498 0.461354 8.11846 0.627878L0.592106 8.15423C0.441191 8.32344 0.36072 8.54397 0.367191 8.7706C0.373661 8.99724 0.466581 9.21282 0.626904 9.37314C0.787226 9.53347 1.00281 9.62639 1.22944 9.63286C1.45608 9.63933 1.67661 9.55886 1.84582 9.40794L9.37217 1.88159C9.53834 1.71542 9.63187 1.49016 9.63225 1.25516C9.63263 1.02016 9.53984 0.794588 9.37422 0.627878Z" fill="#3842B0"/>
<path d="M9.37623 8.1541L1.84987 0.627748C1.68066 0.476833 1.46013 0.396362 1.2335 0.402832C1.00686 0.409302 0.79128 0.502223 0.630957 0.662546C0.470634 0.822868 0.377713 1.03845 0.371243 1.26508C0.364773 1.49172 0.445244 1.71225 0.596159 1.88146L8.12251 9.40781C8.29172 9.55873 8.51225 9.6392 8.73889 9.63273C8.96553 9.62626 9.18111 9.53334 9.34143 9.37302C9.50175 9.21269 9.59467 8.99712 9.60114 8.77048C9.60761 8.54384 9.52714 8.32331 9.37623 8.1541V8.1541Z" fill="#3842B0"/>
</svg>
