<svg width="16" height="16" viewBox="0 0 16 16" fill="none" xmlns="http://www.w3.org/2000/svg">
<g clip-path="url(#clip0_1092_9865)">
<path d="M4.46679 6.90137C4.42577 6.86621 4.40526 6.82812 4.40526 6.79004C4.40526 6.69922 4.5371 6.59668 4.70995 6.59668H5.0703C5.19921 6.59668 5.30468 6.49121 5.30468 6.3623V5.89355C5.30468 5.76465 5.19921 5.65918 5.0703 5.65918H4.71288C4.02734 5.65918 3.47069 6.16602 3.47069 6.79004C3.47069 7.10352 3.61425 7.40234 3.86034 7.61328L4.50194 8.16406C4.54296 8.19922 4.56347 8.2373 4.56347 8.27539C4.56347 8.36621 4.43163 8.46875 4.25878 8.46875H3.89843C3.76952 8.46875 3.66405 8.57422 3.66405 8.70312V9.17188C3.66405 9.30078 3.76952 9.40625 3.89843 9.40625H4.25878C4.94433 9.40625 5.50097 8.89941 5.50097 8.27539C5.50097 7.96191 5.35741 7.66309 5.11132 7.45215L4.46679 6.90137ZM9.40624 5.65625H8.93749C8.75878 5.65625 8.59765 5.75586 8.51855 5.91406L7.99999 6.95117L7.48144 5.91406C7.40233 5.75586 7.2412 5.65625 7.06249 5.65625H6.59374C6.33593 5.65625 6.12499 5.86719 6.12499 6.125V9.17188C6.12499 9.30078 6.23046 9.40625 6.35937 9.40625H6.82812C6.95702 9.40625 7.06249 9.30078 7.06249 9.17188V7.17383L7.78905 8.80859C7.87401 8.98145 8.12304 8.98145 8.208 8.80859L8.93456 7.17383V9.17188C8.93456 9.30078 9.04003 9.40625 9.16894 9.40625H9.63769C9.76659 9.40625 9.87206 9.30078 9.87206 9.17188V6.125C9.87499 5.86719 9.66405 5.65625 9.40624 5.65625ZM11.498 6.90137C11.457 6.86621 11.4365 6.82812 11.4365 6.79004C11.4365 6.69922 11.5684 6.59668 11.7412 6.59668H12.1016C12.2305 6.59668 12.3359 6.49121 12.3359 6.3623V5.89355C12.3359 5.76465 12.2305 5.65918 12.1016 5.65918H11.7412C11.0557 5.65918 10.499 6.16602 10.499 6.79004C10.499 7.10352 10.6426 7.40234 10.8887 7.61328L11.5303 8.16406C11.5713 8.19922 11.5918 8.2373 11.5918 8.27539C11.5918 8.36621 11.46 8.46875 11.2871 8.46875H10.9297C10.8008 8.46875 10.6953 8.57422 10.6953 8.70312V9.17188C10.6953 9.30078 10.8008 9.40625 10.9297 9.40625H11.29C11.9756 9.40625 12.5322 8.89941 12.5322 8.27539C12.5322 7.96191 12.3887 7.66309 12.1426 7.45215L11.498 6.90137ZM7.99999 1.4375C3.85741 1.4375 0.499991 4.16504 0.499991 7.53125C0.499991 8.92578 1.083 10.2031 2.0498 11.2314C1.61327 12.3857 0.705069 13.3643 0.690421 13.376C0.497062 13.5811 0.444327 13.8799 0.555655 14.1377C0.666983 14.3955 0.921866 14.5625 1.20312 14.5625C3.00487 14.5625 4.42577 13.8096 5.27831 13.2061C6.12499 13.4727 7.03905 13.625 7.99999 13.625C12.1426 13.625 15.5 10.8975 15.5 7.53125C15.5 4.16504 12.1426 1.4375 7.99999 1.4375ZM7.99999 12.2188C7.21776 12.2188 6.44433 12.0986 5.70312 11.8643L5.03808 11.6533L4.46679 12.0576C4.04784 12.3535 3.47362 12.6846 2.78222 12.9072C2.99608 12.5527 3.20409 12.1543 3.36523 11.7295L3.67577 10.9062L3.07226 10.2676C2.54198 9.70215 1.90624 8.76758 1.90624 7.53125C1.90624 4.94727 4.63964 2.84375 7.99999 2.84375C11.3603 2.84375 14.0937 4.94727 14.0937 7.53125C14.0937 10.1152 11.3603 12.2188 7.99999 12.2188Z" fill="#3842B0"/>
</g>
<defs>
<clipPath id="clip0_1092_9865">
<rect width="15" height="15" fill="white" transform="translate(0.5 0.5)"/>
</clipPath>
</defs>
</svg>
