<svg width="16" height="16" viewBox="0 0 16 16" fill="none" xmlns="http://www.w3.org/2000/svg">
<path d="M13.2533 2.67969C11.8504 1.27344 9.98214 0.5 7.99665 0.5C3.89844 0.5 0.563616 3.83482 0.563616 7.93304C0.563616 9.24219 0.905134 10.5212 1.55469 11.6496L0.5 15.5L4.44085 14.4654C5.52567 15.058 6.74777 15.3694 7.9933 15.3694H7.99665C12.0915 15.3694 15.5 12.0346 15.5 7.93638C15.5 5.95089 14.6562 4.08594 13.2533 2.67969ZM7.99665 14.1172C6.88504 14.1172 5.79687 13.8192 4.84933 13.2567L4.625 13.1228L2.28795 13.7355L2.91071 11.4554L2.76339 11.221C2.14397 10.2366 1.8192 9.10156 1.8192 7.93304C1.8192 4.5279 4.59152 1.75558 8 1.75558C9.65067 1.75558 11.2009 2.39844 12.3661 3.56696C13.5312 4.73549 14.2478 6.28571 14.2444 7.93638C14.2444 11.3449 11.4018 14.1172 7.99665 14.1172ZM11.385 9.48995C11.2009 9.3962 10.2868 8.94754 10.1161 8.88728C9.94531 8.82366 9.82143 8.79353 9.69755 8.98103C9.57366 9.16853 9.21875 9.5837 9.10826 9.71094C9.00112 9.83482 8.89062 9.85156 8.70647 9.75781C7.61496 9.21205 6.89844 8.78348 6.17857 7.54799C5.98772 7.21987 6.36942 7.2433 6.72433 6.53348C6.7846 6.4096 6.75446 6.30245 6.70759 6.2087C6.66071 6.11495 6.28906 5.20089 6.13504 4.82924C5.98438 4.46763 5.83036 4.51786 5.71652 4.51116C5.60938 4.50446 5.48549 4.50446 5.36161 4.50446C5.23772 4.50446 5.03683 4.55134 4.86607 4.73549C4.69531 4.92299 4.21652 5.37165 4.21652 6.28571C4.21652 7.19978 4.88281 8.08371 4.97321 8.20759C5.06696 8.33147 6.28237 10.2065 8.14732 11.0134C9.32589 11.5223 9.78795 11.5658 10.3772 11.4788C10.7355 11.4252 11.4754 11.0301 11.6295 10.5949C11.7835 10.1596 11.7835 9.78795 11.7366 9.71094C11.6931 9.62723 11.5692 9.58036 11.385 9.48995Z" fill="#3842B0"/>
</svg>
